<?xml version="1.0" encoding="UTF-8"?>
<svg id="Layer_1" data-name="Layer 1" xmlns="http://www.w3.org/2000/svg" xmlns:xlink="http://www.w3.org/1999/xlink" viewBox="0 0 900 900">
  <defs>
    <style>
      .cls-1, .cls-2 {
        fill: #e95420;
      }

      .cls-3, .cls-4 {
        fill: #fff;
      }

      .cls-5 {
        mask: url(#mask);
      }

      .cls-4 {
        fill-rule: evenodd;
      }

      .cls-6, .cls-7, .cls-8, .cls-9, .cls-10 {
        fill: none;
      }

      .cls-7 {
        stroke-width: .42px;
      }

      .cls-7, .cls-8, .cls-9 {
        stroke: #e95420;
      }

      .cls-11 {
        fill: #ccac5b;
      }

      .cls-12 {
        clip-path: url(#clippath-1);
      }

      .cls-2 {
        stroke-width: .41px;
      }

      .cls-2, .cls-10 {
        stroke: #fff;
      }

      .cls-8 {
        stroke-linejoin: round;
        stroke-width: 16.99px;
      }

      .cls-9 {
        stroke-width: 2.52px;
      }

      .cls-9, .cls-10 {
        stroke-linecap: round;
      }

      .cls-10 {
        stroke-width: .89px;
      }

      .cls-13 {
        clip-path: url(#clippath);
      }
    </style>
    <clipPath id="clippath">
      <path class="cls-6" d="M467.6,660.16c12.56-57.73,63.95-100.97,125.45-100.97,20.32,0,39.52,4.73,56.6,13.13,31.84-39.88,50.88-90.42,50.88-145.42,0-50.32-15.93-96.92-43.03-135.03-12.59,4.12-26.03,6.36-40,6.36-62.34,0-114.29-44.43-125.94-103.35-7.99-.83-16.09-1.26-24.3-1.26-90.44,0-168.86,51.47-207.57,126.72,21.3,22.92,34.33,53.63,34.33,87.38,0,39.62-17.95,75.05-46.16,98.6,32.49,89.73,118.45,153.85,219.39,153.85.11,0,.23,0,.34,0Z"/>
    </clipPath>
    <clipPath id="clippath-1">
      <rect class="cls-6" x="385.88" y="487.01" width="358.01" height="132.78"/>
    </clipPath>
    <mask id="mask" x="513.62" y="318.93" width="104" height="139.16" maskUnits="userSpaceOnUse">
      <g id="mask0_3_1910" data-name="mask0 3 1910">
        <path class="cls-11" d="M563.62,318.93s34.05,79.84,34.05,138.25l-66.39.42c0-61.77,32.34-138.67,32.34-138.67Z"/>
      </g>
    </mask>
  </defs>
  <path class="cls-1" d="M467.6,660.16c12.56-57.73,63.95-100.97,125.45-100.97,20.32,0,39.52,4.73,56.6,13.13,31.84-39.88,50.88-90.42,50.88-145.42,0-50.32-15.93-96.92-43.03-135.03-12.59,4.12-26.03,6.36-40,6.36-62.34,0-114.29-44.43-125.94-103.35-7.99-.83-16.09-1.26-24.3-1.26-90.44,0-168.86,51.47-207.57,126.72,21.3,22.92,34.33,53.63,34.33,87.38,0,39.62-17.95,75.05-46.16,98.6,32.49,89.73,118.45,153.85,219.39,153.85.11,0,.23,0,.34,0Z"/>
  <g>
    <rect class="cls-6" x="50.75" y="50.75" width="798.49" height="798.49"/>
    <circle class="cls-1" cx="165.63" cy="407.72" r="108.48"/>
    <circle class="cls-1" cx="617.5" cy="169.82" r="108.48"/>
    <path class="cls-1" d="M410.33,686.96c-78.13-16.73-143.48-66.68-180.18-137.42-28.94,13.16-61.44,17.19-92.75,11.42,44.42,109.11,138.67,188.36,254.29,213.15,25.37,5.44,51.27,8.1,77.06,7.93-19.93-26.2-31.01-57.79-31.76-90.71-8.93-1-17.85-2.45-26.61-4.32l-.04-.04Z"/>
    <circle class="cls-1" cx="593.05" cy="687.58" r="108.48"/>
    <path class="cls-1" d="M744,647.72c33.75-42.51,57.5-92.79,68.96-146.26,19.97-93.16,1.33-190.94-51.15-270.23-12.5,29.44-33.71,54.35-61.03,71.45,29.27,55.18,38.2,118.86,25.08,180.14-6.44,29.98-17.77,58.25-33.75,84.07,25.53,20.92,43.55,49.11,51.94,80.83h-.04Z"/>
    <path class="cls-1" d="M157.24,252.15c2.74-.17,5.52-.21,8.26-.21,10.96,0,21.92,1.16,32.76,3.49,17.69,3.78,34.33,10.5,49.53,19.93,48.87-70.25,127.66-112.43,213.06-113.96.46-8.18,1.54-16.4,3.28-24.41,4.98-23.25,15.15-44.96,29.64-63.56-136.42-10.79-269.03,59.62-336.54,178.73Z"/>
  </g>
  <g class="cls-13">
    <g>
      <g>
        <path class="cls-1" d="M377.54,234.36l-62.92,89.2-59.58,48.29-21.66,40.91-30.57,43.18-24.05,3.98-33.26,67.38h492.34l-115.51-148.29-49.83-30.11-23.78-44.77-71.2-69.77Z"/>
        <path class="cls-3" d="M441.15,315.27l-57.31-52.04,19.1,77.38,18.44,35.22,14.6,73.09,26.94,70.08h131.31l-77.34-136.47-57.31-28.07-18.44-39.2Z"/>
        <path class="cls-3" d="M371.95,255.95l-48.56,67.61-56.06,49.88-57.01,86.47-25.65,8.41-31.53,56.02,100.46,2.95h226.91l-71.39-148.28-20.56-30.11-9.81-44.77-6.78-48.18Z"/>
        <path class="cls-1" d="M371.95,318.11l-48.56,52.15-56.06,38.48-57.01,66.7-25.65,6.49-32.31,47.49,101.23-2,384.02,2.86-228.51-117.24-7.77-39.59-22.6-18.17-6.78-37.16Z"/>
        <path class="cls-1" d="M437.94,324.13l-39.68-32.61,2.14,24.89,7.08,28.18,37.4-6.7-6.95-13.75Z"/>
        <path class="cls-1" d="M559.84,489.18l-64.39-87.18-56.17-33.14,35.28,139.45,97.25-5.35-11.97-13.78Z"/>
      </g>
      <path class="cls-3" d="M296.04,477.21l6.17-2.68v8.47c0,.26-.21.46-.46.46-1.3,0-2.57.41-3.63,1.18l-.92.67c-.48.35-1.15,0-1.15-.59v-7.51Z"/>
      <path class="cls-3" d="M231.85,497.77l6.17-2.68v8.47c0,.26-.21.46-.46.46-1.3,0-2.57.41-3.63,1.18l-.92.67c-.48.35-1.16,0-1.16-.59v-7.51Z"/>
      <path class="cls-3" d="M252.84,490.62l6.17-2.68v8.47c0,.26-.21.46-.46.46-1.3,0-2.57.41-3.63,1.18l-.92.67c-.48.35-1.16,0-1.16-.59v-7.51Z"/>
      <path class="cls-3" d="M276.29,482.58l6.17-2.68v8.47c0,.26-.21.46-.46.46-1.3,0-2.57.41-3.63,1.18l-.92.67c-.48.35-1.16,0-1.16-.59v-7.51Z"/>
      <path class="cls-3" d="M219.09,578.15l5.57-3.7v12.01c0,.18-.14.32-.32.32-1.21,0-2.37.51-3.19,1.42l-1.05,1.16c-.36.4-1.02.14-1.02-.39v-10.81Z"/>
      <path class="cls-3" d="M239.16,570.75l5.57-3.7v12.01c0,.18-.14.32-.32.32-1.21,0-2.37.51-3.19,1.42l-1.05,1.16c-.36.4-1.02.14-1.02-.39v-10.81Z"/>
      <path class="cls-3" d="M261.46,560.88l5.57-3.7v12.01c0,.18-.14.32-.32.32-1.21,0-2.37.51-3.19,1.42l-1.05,1.16c-.36.4-1.02.14-1.02-.39v-10.81Z"/>
      <path class="cls-3" d="M280.41,551.01l5.57-3.7v12.01c0,.18-.14.32-.32.32-1.21,0-2.37.51-3.19,1.42l-1.05,1.16c-.36.4-1.02.14-1.02-.39v-10.81Z"/>
      <path class="cls-3" d="M301.6,539.91l5.57-3.7v12.01c0,.18-.14.32-.32.32-1.21,0-2.37.51-3.19,1.42l-1.05,1.16c-.36.4-1.02.14-1.02-.39v-10.81Z"/>
      <g>
        <g class="cls-12">
          <path class="cls-3" d="M743.9,620.22c0-35.33-18.86-69.21-52.43-94.19-33.57-24.98-79.1-39.01-126.58-39.01s-93.01,14.03-126.58,39.01c-33.57,24.98-52.43,58.86-52.43,94.19h358.01Z"/>
        </g>
        <path class="cls-2" d="M531.48,489.45v-31.63l29.84,2.09v31.93l-29.84-2.39Z"/>
        <path class="cls-3" d="M531.27,457.6l30.26.72v12.3l-1.1-.91c-.87-.72-2.07-.86-3.08-.36-1.03.51-2.27.35-3.14-.41l-.76-.67c-.7-.62-1.71-.74-2.55-.32l-.09.05c-.65.33-1.43.3-2.05-.08-.67-.41-1.52-.41-2.19,0l-.09.06c-.58.35-1.28.43-1.92.21l-1.13-.38c-1.06-.36-2.22-.34-3.27.06l-.1.04c-1.06.4-2.23.44-3.32.11l-.35-.1c-1.41-.43-2.92-.34-4.27.24l-.85.37-2.1-.86,2.1-10.08Z"/>
        <path class="cls-2" d="M597.46,489.44v-31.63l-35.73,2.09v31.93l35.73-2.39Z"/>
        <path class="cls-1" d="M563.62,318.93s34.05,79.84,34.05,138.25l-66.39.42c0-61.77,32.34-138.67,32.34-138.67Z"/>
        <path class="cls-4" d="M573.29,331.46c0-10.62-9.48-25.14-9.48-25.14,0,0-9.01,13.98-9.01,25.21h1.68c0-9.74,7.37-21.85,7.37-21.85,0,0,7.76,12.58,7.76,21.78h1.68Z"/>
        <g class="cls-5">
          <g>
            <path class="cls-4" d="M616.78,458.09c-11.1-3.05-30.06-5.06-51.58-5.06s-40.48,2.01-51.58,5.06c2.32-5.46,24.53-9.73,51.58-9.73s49.26,4.28,51.58,9.73Z"/>
            <path class="cls-4" d="M616.78,450.03c-11.1-4.48-30.06-7.43-51.58-7.43s-40.48,2.95-51.58,7.43c2.32-8.01,24.53-14.29,51.58-14.29s49.26,6.28,51.58,14.29Z"/>
            <path class="cls-4" d="M616.78,436.59c-11.1-4.48-30.06-7.43-51.58-7.43s-40.48,2.95-51.58,7.43c2.32-8.01,24.53-14.29,51.58-14.29s49.26,6.28,51.58,14.29Z"/>
            <path class="cls-4" d="M616.78,423.14c-11.1-4.74-30.06-7.87-51.58-7.87s-40.48,3.12-51.58,7.87c2.32-8.48,24.53-15.13,51.58-15.13s49.26,6.65,51.58,15.13Z"/>
            <path class="cls-4" d="M616.78,409.69c-11.1-4.48-30.06-7.43-51.58-7.43s-40.48,2.95-51.58,7.43c2.32-8.01,24.53-14.29,51.58-14.29s49.26,6.28,51.58,14.29Z"/>
            <path class="cls-4" d="M616.78,396.25c-11.1-4.48-30.06-7.43-51.58-7.43s-40.48,2.95-51.58,7.43c2.32-8.01,24.53-14.29,51.58-14.29s49.26,6.28,51.58,14.29Z"/>
            <path class="cls-4" d="M616.78,382.8c-11.1-4.48-30.06-7.43-51.58-7.43s-40.48,2.95-51.58,7.43c2.32-8.01,24.53-14.29,51.58-14.29s49.26,6.28,51.58,14.29Z"/>
            <path class="cls-4" d="M617.62,369.35c-11.1-3.95-30.06-6.55-51.58-6.55s-40.48,2.6-51.58,6.55c2.32-7.07,24.53-12.61,51.58-12.61s49.26,5.54,51.58,12.61Z"/>
            <path class="cls-4" d="M616.78,358.08c-11.1-3.84-30.06-6.37-51.58-6.37s-40.48,2.53-51.58,6.37c2.32-6.87,24.53-12.26,51.58-12.26s49.26,5.39,51.58,12.26Z"/>
            <path class="cls-4" d="M616.78,345.47c-11.1-3.05-30.06-5.06-51.58-5.06s-40.48,2.01-51.58,5.06c2.32-5.46,24.53-9.73,51.58-9.73s49.26,4.28,51.58,9.73Z"/>
          </g>
        </g>
        <path class="cls-1" d="M581.28,413.04c.01.7-.54,1.27-1.24,1.28-.7.01-1.27-.54-1.28-1.24l2.52-.04ZM568.63,335.4c9.34,34.15,12.31,55.65,12.65,77.63l-2.52.04c-.34-21.72-3.26-43.01-12.56-77l2.43-.67Z"/>
        <path class="cls-1" d="M534.63,442.6l1.68,10.3,19.61.5,2.24-11.53-12.33-17.04-11.21,17.78Z"/>
        <path class="cls-9" d="M561.53,338.26c-11.5,34.07-15.13,55.47-15.55,77.32"/>
        <path class="cls-1" d="M570.77,441.21l2.1,10.93h16.39l1.26-11.77-9.24-15.55-10.5,16.39Z"/>
        <path class="cls-3" d="M573.29,330.7l.84,7.98c-1.93-.83-4.04-1.12-6.12-.85l-.89.12c-1.21.16-2.43.17-3.63.03l-.66-.08c-2.8-.32-5.63-.06-8.33.77l-1.38.42,1.68-8.4c3.51-.28,18.49,0,18.49,0Z"/>
        <path class="cls-1" d="M555.23,326.24l18.07-.59v5.86l-18.49.02c0-2.88.42-5.29.42-5.29Z"/>
        <path class="cls-7" d="M173.48,512.22c226.34-62.61,336.03-114.3,385.94-179.01"/>
        <path class="cls-3" d="M367.33,450.87l5.8-2.52v7.97c0,.24-.2.44-.44.44-1.23,0-2.42.39-3.41,1.11l-.87.63c-.45.33-1.09,0-1.09-.55v-7.06Z"/>
        <path class="cls-3" d="M413.76,430.7l5.8-2.52v7.97c0,.24-.2.44-.44.44-1.23,0-2.42.39-3.41,1.11l-.87.63c-.45.33-1.09,0-1.09-.55v-7.06Z"/>
        <path class="cls-3" d="M461.34,408.85l5.8-2.52v7.97c0,.24-.2.44-.44.44-1.23,0-2.42.39-3.41,1.11l-.87.63c-.45.33-1.09,0-1.09-.55v-7.06Z"/>
        <path class="cls-3" d="M511.26,377.76l5.8-2.52v7.97c0,.24-.2.44-.44.44-1.23,0-2.42.39-3.41,1.11l-.87.63c-.45.33-1.09,0-1.09-.55v-7.06Z"/>
        <path class="cls-3" d="M378.93,445.83l5.8-2.52v7.97c0,.24-.2.44-.44.44-1.23,0-2.42.39-3.41,1.11l-.87.63c-.45.33-1.09,0-1.09-.55v-7.06Z"/>
        <path class="cls-3" d="M425.36,425.66l5.8-2.52v7.97c0,.24-.2.44-.44.44-1.23,0-2.42.39-3.41,1.11l-.87.63c-.45.33-1.09,0-1.09-.55v-7.06Z"/>
        <path class="cls-3" d="M313.93,470.2l5.8-2.52v7.97c0,.24-.2.44-.44.44-1.23,0-2.42.39-3.41,1.11l-.87.63c-.45.33-1.09,0-1.09-.55v-7.06Z"/>
        <path class="cls-3" d="M475.27,401.29l5.8-2.52v7.97c0,.24-.2.44-.44.44-1.23,0-2.42.39-3.41,1.11l-.87.63c-.45.33-1.09,0-1.09-.55v-7.06Z"/>
        <path class="cls-3" d="M524.02,366.83l5.8-2.52v7.97c0,.24-.2.44-.44.44-1.23,0-2.42.39-3.41,1.11l-.87.63c-.45.33-1.09,0-1.09-.55v-7.06Z"/>
        <path class="cls-3" d="M390.54,441.63l5.8-2.52v7.97c0,.24-.2.44-.44.44-1.23,0-2.42.39-3.41,1.11l-.87.63c-.45.33-1.09,0-1.09-.55v-7.06Z"/>
        <path class="cls-3" d="M436.97,421.46l5.8-2.52v7.97c0,.24-.2.44-.44.44-1.23,0-2.42.39-3.41,1.11l-.87.63c-.45.33-1.09,0-1.09-.55v-7.06Z"/>
        <path class="cls-3" d="M329.02,464.32l5.8-2.52v7.97c0,.24-.2.44-.44.44-1.23,0-2.42.39-3.41,1.11l-.87.63c-.45.33-1.09,0-1.09-.55v-7.06Z"/>
        <path class="cls-3" d="M486.88,392.88l5.8-2.52v7.97c0,.24-.2.44-.44.44-1.23,0-2.42.39-3.41,1.11l-.87.63c-.45.33-1.09,0-1.09-.55v-7.06Z"/>
        <path class="cls-3" d="M400.99,437.43l5.8-2.52v7.97c0,.24-.2.44-.44.44-1.23,0-2.42.39-3.41,1.11l-.87.63c-.45.33-1.09,0-1.09-.55v-7.06Z"/>
        <path class="cls-3" d="M447.42,417.26l5.8-2.52v7.97c0,.24-.2.44-.44.44-1.23,0-2.42.39-3.41,1.11l-.87.63c-.45.33-1.09,0-1.09-.55v-7.06Z"/>
        <path class="cls-3" d="M347.59,458.44l5.8-2.52v7.97c0,.24-.2.44-.44.44-1.23,0-2.42.39-3.41,1.11l-.87.63c-.45.33-1.09,0-1.09-.55v-7.06Z"/>
        <path class="cls-3" d="M499.65,386.16l5.8-2.52v7.97c0,.24-.2.44-.44.44-1.23,0-2.42.39-3.41,1.11l-.87.63c-.45.33-1.09,0-1.09-.55v-7.06Z"/>
        <path class="cls-3" d="M536.79,356.75l5.8-2.52v7.97c0,.24-.2.44-.44.44-1.23,0-2.42.39-3.41,1.11l-.87.63c-.45.33-1.09,0-1.09-.55v-7.06Z"/>
        <path class="cls-7" d="M210.82,580.29c204.45-86.42,303.53-157.75,348.61-247.07"/>
        <path class="cls-3" d="M385.91,495.61l5.24-3.48v11.3c0,.17-.14.3-.3.3-1.14,0-2.23.48-3,1.33l-.98,1.09c-.34.37-.96.13-.96-.37v-10.17Z"/>
        <path class="cls-3" d="M427.85,467.77l5.24-3.48v11.3c0,.17-.14.3-.3.3-1.14,0-2.23.48-3,1.33l-.98,1.09c-.34.37-.96.13-.96-.37v-10.17Z"/>
        <path class="cls-3" d="M319.86,530.41l5.24-3.48v11.3c0,.17-.14.3-.3.3-1.14,0-2.23.48-3,1.33l-.98,1.09c-.34.37-.96.13-.96-.37v-10.17Z"/>
        <path class="cls-3" d="M470.83,437.61l5.24-3.48v11.3c0,.17-.14.3-.3.3-1.14,0-2.23.48-3,1.33l-.98,1.09c-.34.37-.96.13-.96-.37v-10.17Z"/>
        <path class="cls-3" d="M515.92,394.69l5.24-3.48v11.3c0,.17-.14.3-.3.3-1.14,0-2.23.48-3,1.33l-.98,1.09c-.34.37-.96.13-.96-.37v-10.17Z"/>
        <path class="cls-3" d="M396.39,488.65l5.24-3.48v11.3c0,.17-.14.3-.3.3-1.14,0-2.23.48-3,1.33l-.98,1.09c-.34.37-.96.13-.96-.37v-10.17Z"/>
        <path class="cls-3" d="M438.33,460.81l5.24-3.48v11.3c0,.17-.14.3-.3.3-1.14,0-2.23.48-3,1.33l-.98,1.09c-.34.37-.96.13-.96-.37v-10.17Z"/>
        <path class="cls-3" d="M337.68,522.29l5.24-3.48v11.3c0,.17-.14.3-.3.3-1.14,0-2.23.48-3,1.33l-.98,1.09c-.34.37-.96.13-.96-.37v-10.17Z"/>
        <path class="cls-3" d="M483.41,427.17l5.24-3.48v11.3c0,.17-.14.3-.3.3-1.14,0-2.23.48-3,1.33l-.98,1.09c-.34.37-.96.13-.96-.37v-10.17Z"/>
        <path class="cls-3" d="M527.45,379.61l5.24-3.48v11.3c0,.17-.14.3-.3.3-1.14,0-2.23.48-3,1.33l-.98,1.09c-.34.37-.96.13-.96-.37v-10.17Z"/>
        <path class="cls-3" d="M406.88,482.85l5.24-3.48v11.3c0,.17-.14.3-.3.3-1.14,0-2.23.48-3,1.33l-.98,1.09c-.34.37-.96.13-.96-.37v-10.17Z"/>
        <path class="cls-3" d="M448.82,455.01l5.24-3.48v11.3c0,.17-.14.3-.3.3-1.14,0-2.23.48-3,1.33l-.98,1.09c-.34.37-.96.13-.96-.37v-10.17Z"/>
        <path class="cls-3" d="M351.31,514.17l5.24-3.48v11.3c0,.17-.14.3-.3.3-1.14,0-2.23.48-3,1.33l-.98,1.09c-.34.37-.96.13-.96-.37v-10.17Z"/>
        <path class="cls-3" d="M493.9,415.57l5.24-3.48v11.3c0,.17-.14.3-.3.3-1.14,0-2.23.48-3,1.33l-.98,1.09c-.34.37-.96.13-.96-.37v-10.17Z"/>
        <path class="cls-3" d="M416.31,477.05l5.24-3.48v11.3c0,.17-.14.3-.3.3-1.14,0-2.23.48-3,1.33l-.98,1.09c-.34.37-.96.13-.96-.37v-10.17Z"/>
        <path class="cls-3" d="M458.25,449.21l5.24-3.48v11.3c0,.17-.14.3-.3.3-1.14,0-2.23.48-3,1.33l-.98,1.09c-.34.37-.96.13-.96-.37v-10.17Z"/>
        <path class="cls-3" d="M368.09,506.05l5.24-3.48v11.3c0,.17-.14.3-.3.3-1.14,0-2.23.48-3,1.33l-.98,1.09c-.34.37-.96.13-.96-.37v-10.17Z"/>
        <path class="cls-3" d="M505.43,406.29l5.24-3.48v11.3c0,.17-.14.3-.3.3-1.14,0-2.23.48-3,1.33l-.98,1.09c-.34.37-.96.13-.96-.37v-10.17Z"/>
        <path class="cls-3" d="M538.98,365.69l5.24-3.48v11.3c0,.17-.14.3-.3.3-1.14,0-2.23.48-3,1.33l-.98,1.09c-.34.37-.96.13-.96-.37v-10.17Z"/>
        <path class="cls-7" d="M869.12,510.3c-173-59.88-256.83-109.31-294.98-171.2"/>
        <path class="cls-3" d="M720.96,451.63l-4.44-2.41v7.75c0,.16.13.29.29.29.96,0,1.88.36,2.59,1l.75.68c.31.28.81.06.81-.36v-6.94Z"/>
        <path class="cls-3" d="M685.47,432.33l-4.44-2.41v7.75c0,.16.13.29.29.29.96,0,1.88.36,2.59,1l.75.68c.31.28.81.06.81-.36v-6.94Z"/>
        <path class="cls-3" d="M649.1,411.44l-4.44-2.41v7.75c0,.16.13.29.29.29.96,0,1.88.36,2.59,1l.75.68c.31.28.81.06.81-.36v-6.94Z"/>
        <path class="cls-3" d="M610.95,381.7l-4.44-2.41v7.75c0,.16.13.29.29.29.96,0,1.88.36,2.59,1l.75.68c.31.28.81.06.81-.36v-6.94Z"/>
        <path class="cls-3" d="M712.09,446.8l-4.44-2.41v7.75c0,.16.13.29.29.29.96,0,1.88.36,2.59,1l.75.68c.31.28.81.06.81-.36v-6.94Z"/>
        <path class="cls-3" d="M676.6,427.51l-4.44-2.41v7.75c0,.16.13.29.29.29.96,0,1.88.36,2.59,1l.75.68c.31.28.81.06.81-.36v-6.94Z"/>
        <path class="cls-3" d="M638.45,404.2l-4.44-2.41v7.75c0,.16.13.29.29.29.96,0,1.88.36,2.59,1l.75.68c.31.28.81.06.81-.36v-6.94Z"/>
        <path class="cls-3" d="M601.19,371.25l-4.44-2.41v7.75c0,.16.13.29.29.29.96,0,1.88.36,2.59,1l.75.68c.31.28.81.06.81-.36v-6.94Z"/>
        <path class="cls-3" d="M703.22,442.78l-4.44-2.41v7.75c0,.16.13.29.29.29.96,0,1.88.36,2.59,1l.75.68c.31.28.81.06.81-.36v-6.94Z"/>
        <path class="cls-3" d="M667.73,423.49l-4.44-2.41v7.75c0,.16.13.29.29.29.96,0,1.88.36,2.59,1l.75.68c.31.28.81.06.81-.36v-6.94Z"/>
        <path class="cls-3" d="M629.58,396.17l-4.44-2.41v7.75c0,.16.13.29.29.29.96,0,1.88.36,2.59,1l.75.68c.31.28.81.06.81-.36v-6.94Z"/>
        <path class="cls-3" d="M695.23,438.77l-4.44-2.41v7.75c0,.16.13.29.29.29.96,0,1.88.36,2.59,1l.75.68c.31.28.81.06.81-.36v-6.94Z"/>
        <path class="cls-3" d="M659.75,419.48l-4.44-2.41v7.75c0,.16.13.29.29.29.96,0,1.88.36,2.59,1l.75.68c.31.28.81.06.81-.36v-6.94Z"/>
        <path class="cls-3" d="M619.82,389.74l-4.44-2.41v7.75c0,.16.13.29.29.29.96,0,1.88.36,2.59,1l.75.68c.31.28.81.06.81-.36v-6.94Z"/>
        <path class="cls-3" d="M591.43,361.6l-4.44-2.41v7.75c0,.16.13.29.29.29.96,0,1.88.36,2.59,1l.75.68c.31.28.81.06.81-.36v-6.94Z"/>
        <path class="cls-7" d="M796.84,547.8c-130.61-73-193.9-133.26-222.71-208.7"/>
        <path class="cls-3" d="M684.99,476.27l-3.35-2.94v9.63c0,.09.07.17.17.17.73,0,1.42.36,1.83.97l.71,1.05c.19.28.63.15.63-.2v-8.68Z"/>
        <path class="cls-3" d="M658.19,452.76l-3.35-2.94v9.63c0,.09.07.17.17.17.73,0,1.42.36,1.83.97l.71,1.05c.19.28.63.15.63-.2v-8.68Z"/>
        <path class="cls-3" d="M630.73,427.28l-3.35-2.94v9.63c0,.09.07.17.17.17.73,0,1.42.36,1.83.97l.71,1.05c.19.28.63.15.63-.2v-8.68Z"/>
        <path class="cls-3" d="M601.93,391.03l-3.35-2.94v9.63c0,.09.07.17.17.17.73,0,1.42.36,1.83.97l.71,1.05c.19.28.63.14.63-.2v-8.68Z"/>
        <path class="cls-3" d="M678.29,470.4l-3.35-2.94v9.63c0,.09.07.17.17.17.73,0,1.42.36,1.83.97l.71,1.05c.19.28.63.14.63-.2v-8.68Z"/>
        <path class="cls-3" d="M651.5,446.88l-3.35-2.94v9.63c0,.09.07.17.17.17.73,0,1.42.36,1.83.97l.71,1.05c.19.28.63.14.63-.2v-8.68Z"/>
        <path class="cls-3" d="M715.8,498.81l-3.35-2.94v9.63c0,.09.07.17.17.17.73,0,1.42.36,1.83.97l.71,1.05c.19.28.63.15.63-.2v-8.68Z"/>
        <path class="cls-3" d="M622.69,418.47l-3.35-2.94v9.63c0,.09.07.17.17.17.73,0,1.42.36,1.83.97l.71,1.05c.19.28.63.15.63-.2v-8.68Z"/>
        <path class="cls-3" d="M594.56,378.29l-3.35-2.94v9.63c0,.09.07.17.17.17.73,0,1.42.36,1.83.97l.71,1.05c.19.28.63.14.63-.2v-8.68Z"/>
        <path class="cls-3" d="M671.59,465.5l-3.35-2.94v9.63c0,.09.07.17.17.17.73,0,1.42.36,1.83.97l.71,1.05c.19.28.63.14.63-.2v-8.68Z"/>
        <path class="cls-3" d="M644.8,441.98l-3.35-2.94v9.63c0,.09.07.17.17.17.73,0,1.42.36,1.83.97l.71,1.05c.19.28.63.14.63-.2v-8.68Z"/>
        <path class="cls-3" d="M707.09,491.95l-3.35-2.94v9.63c0,.09.07.17.17.17.73,0,1.42.36,1.83.97l.71,1.05c.19.28.63.15.63-.2v-8.68Z"/>
        <path class="cls-3" d="M616,408.67l-3.35-2.94v9.63c0,.09.07.17.17.17.73,0,1.42.36,1.83.97l.71,1.05c.19.28.63.14.63-.2v-8.68Z"/>
        <path class="cls-3" d="M665.56,460.6l-3.35-2.94v9.63c0,.09.07.17.17.17.73,0,1.42.36,1.83.97l.71,1.05c.19.28.63.14.63-.2v-8.68Z"/>
        <path class="cls-3" d="M638.77,437.08l-3.35-2.94v9.63c0,.09.07.17.17.17.73,0,1.42.36,1.83.97l.71,1.05c.19.28.63.15.63-.2v-8.68Z"/>
        <path class="cls-3" d="M696.37,485.09l-3.35-2.94v9.63c0,.09.07.17.17.17.73,0,1.42.36,1.83.97l.71,1.05c.19.28.63.15.63-.2v-8.68Z"/>
        <path class="cls-3" d="M608.63,400.83l-3.35-2.94v9.63c0,.09.07.17.17.17.73,0,1.42.36,1.83.97l.71,1.05c.19.28.63.14.63-.2v-8.68Z"/>
        <path class="cls-3" d="M587.2,366.53l-3.35-2.94v9.63c0,.09.07.17.17.17.73,0,1.42.36,1.83.97l.71,1.05c.19.28.63.14.63-.2v-8.68Z"/>
        <path class="cls-3" d="M561.53,458.44l36.14-1.68,2.52,8.4-2.52,1.68-1.52-.21c-.98-.14-1.97-.03-2.9.3l-.27.1c-1.18.42-2.47.42-3.64-.02l-1.15-.43c-.97-.36-2.05-.2-2.87.41l-.29.22c-.74.55-1.73.64-2.56.23-.73-.37-1.6-.34-2.31.06l-.7.4c-.71.41-1.54.58-2.36.5l-1.33-.13c-1.1-.11-2.22,0-3.27.34l-.54.17c-1.23.39-2.54.43-3.79.11-1.97-.5-4.06-.11-5.72,1.08l-.91.65v-12.19Z"/>
        <path class="cls-1" d="M531.27,450.98l30.25-.11v7.09l-30.25-.37v-6.62Z"/>
        <path class="cls-1" d="M561.53,450.97l36.14-.94v6.3l-36.14,1.68v-7.04Z"/>
        <path class="cls-8" d="M432.62,508.7c2.62,56.2,65.03,45.12,86.35,26.66,40.22,53.33,90.54,22.22,108.21,0,50.82,38.97,73.23-4.62,63.94-29.23"/>
        <path class="cls-10" d="M545.68,484.7l-.25-2.82c-.08-.94.62-1.73,1.49-2.1,1.25-.53,1.45-1.33,1.34-1.82-.02-.08-.04-.16-.07-.25-.37-1.43-1.47-1.36-2.43-.92-.63.29-.71,1.1-.28,1.64h0"/>
        <path class="cls-10" d="M538.82,474.12c2.35-1.88,4.51-.4,5.29.58"/>
        <path class="cls-10" d="M538.49,477.05c1.89-.97,3.75-1.66,5.42-.59"/>
        <path class="cls-10" d="M549.47,474.69c2.35-1.88,4.51-.4,5.29.58"/>
        <path class="cls-10" d="M549.27,476.46c1.89-.97,4.54-.68,5.32.3"/>
        <circle class="cls-3" cx="541.17" cy="477.06" r=".89"/>
        <circle class="cls-3" cx="551.95" cy="476.46" r=".89"/>
        <path class="cls-10" d="M581.27,484.56l-.44-2.8c-.15-.94.49-1.77,1.34-2.2,1.21-.61,1.35-1.42,1.21-1.91-.02-.08-.06-.16-.08-.24-.47-1.4-1.57-1.25-2.49-.75-.61.33-.63,1.14-.16,1.65h0"/>
        <path class="cls-10" d="M573.68,474.5c2.21-2.04,4.47-.71,5.32.21"/>
        <path class="cls-10" d="M573.57,477.44c1.82-1.1,3.63-1.92,5.37-.96"/>
        <path class="cls-10" d="M584.34,474.32c2.21-2.04,4.47-.71,5.32.21"/>
        <path class="cls-10" d="M584.27,476.1c1.82-1.1,4.48-1,5.33-.08"/>
        <circle class="cls-3" cx="576.24" cy="477.26" r=".89"/>
        <circle class="cls-3" cx="586.94" cy="475.91" r=".89"/>
        <rect class="cls-3" x="385.88" y="619.8" width="352.15" height="78.01"/>
      </g>
    </g>
  </g>
</svg>